<?xml version="1.0" standalone="no"?>
<!DOCTYPE svg PUBLIC "-//W3C//DTD SVG 20010904//EN"
 "http://www.w3.org/TR/2001/REC-SVG-20010904/DTD/svg10.dtd">
<svg version="1.0" xmlns="http://www.w3.org/2000/svg"
 viewBox="0 0 2600.000000 2600.000000"
 preserveAspectRatio="xMidYMid meet">
<metadata>
Created by potrace 1.15, written by Peter Selinger 2001-2017
</metadata>
<g transform="translate(0.000000,2600.000000) scale(0.100000,-0.100000)"
fill="#000000" stroke="none">
<path d="M4277 20973 c-4 -3 -7 -3183 -7 -7065 l0 -7058 -137 0 c-154 0 -203
-14 -247 -74 -17 -22 -89 -254 -251 -811 -202 -693 -227 -785 -221 -829 7 -61
45 -112 106 -143 l44 -23 1751 0 1751 0 60 197 c63 211 88 258 147 286 33 16
466 17 6247 17 5315 0 6215 -2 6238 -14 66 -34 81 -63 151 -295 l57 -186 1759
0 c1718 0 1761 0 1799 19 56 28 96 95 96 161 0 43 -180 681 -431 1527 -23 79
-57 124 -114 149 -32 15 -66 19 -177 19 l-138 0 -2 7063 -3 7062 -530 0 -530
0 -3 -92 -3 -93 -8174 0 -8175 0 0 95 0 95 -528 0 c-291 0 -532 -3 -535 -7z
m2353 -7328 l0 -6575 -645 0 -645 0 0 6575 0 6575 645 0 645 0 0 -6575z m2660
0 l0 -6575 -1045 0 -1045 0 0 6575 0 6575 1045 0 1045 0 0 -6575z m2660 0 l0
-6575 -1045 0 -1045 0 0 6575 0 6575 1045 0 1045 0 0 -6575z m1420 3626 l0
-2948 -107 -9 -108 -9 -27 -135 c-42 -204 -51 -326 -45 -564 5 -204 28 -379
67 -518 10 -36 13 -38 54 -38 24 0 71 -3 105 -6 l61 -7 0 -2983 0 -2984 -425
0 -425 0 0 6575 0 6575 425 0 425 0 0 -2949z m1240 2364 l0 -585 -315 0 -315
0 0 585 0 585 315 0 315 0 0 -585z m2650 0 l0 -585 -1045 0 -1045 0 0 585 0
585 1045 0 1045 0 0 -585z m2660 0 l0 -585 -1045 0 -1045 0 0 585 0 585 1045
0 1045 0 0 -585z m1770 0 l0 -585 -600 0 -600 0 0 585 0 585 600 0 600 0 0
-585z m-7080 -3220 l0 -2065 -335 0 -335 0 0 2065 0 2065 335 0 335 0 0 -2065z
m2650 -2740 l0 -4805 -1045 0 -1045 0 0 2084 0 2084 31 6 c17 3 55 6 85 6 29
0 56 5 59 10 12 19 43 162 61 285 14 91 19 175 18 345 0 234 -11 333 -55 528
l-21 92 -37 0 c-20 0 -60 3 -88 6 l-53 7 0 2078 0 2079 1045 0 1045 0 0 -4805z
m2660 0 l0 -4805 -1045 0 -1045 0 0 4805 0 4805 1045 0 1045 0 0 -4805z m1770
0 l0 -4805 -600 0 -600 0 0 4805 0 4805 600 0 600 0 0 -4805z m-7080 -2735 l0
-2070 -335 0 -335 0 0 2070 0 2070 335 0 335 0 0 -2070z m0 -3215 l0 -585
-315 0 -315 0 0 585 0 585 315 0 315 0 0 -585z m2650 0 l0 -585 -1045 0 -1045
0 0 585 0 585 1045 0 1045 0 0 -585z m2660 0 l0 -585 -1045 0 -1045 0 0 585 0
585 1045 0 1045 0 0 -585z m1770 0 l0 -585 -600 0 -600 0 0 585 0 585 600 0
600 0 0 -585z"/>
</g>
</svg>
