<svg xmlns="http://www.w3.org/2000/svg" xmlns:xlink="http://www.w3.org/1999/xlink" width="1889" zoomAndPan="magnify" viewBox="0 0 1417.5 1133.999944" height="1511" preserveAspectRatio="xMidYMid meet" version="1.0"><defs><clipPath id="e727da32be"><path d="M 59.234375 325.179688 L 766.484375 325.179688 L 766.484375 883.179688 L 59.234375 883.179688 Z M 59.234375 325.179688 " clip-rule="nonzero"/></clipPath><clipPath id="24f7daf041"><path d="M 829.453125 465.929688 L 1358.203125 465.929688 L 1358.203125 883.679688 L 829.453125 883.679688 Z M 829.453125 465.929688 " clip-rule="nonzero"/></clipPath></defs><g clip-path="url(#e727da32be)"><path fill="#383f44" d="M 700.933594 842.824219 L 622.15625 842.824219 L 622.15625 365.53125 L 700.933594 365.53125 Z M 523.101562 842.824219 L 523.101562 654.167969 L 601.871094 654.167969 L 601.871094 842.824219 Z M 424.046875 842.824219 L 424.046875 365.53125 L 502.816406 365.53125 L 502.816406 842.824219 Z M 324.984375 842.824219 L 324.984375 365.53125 L 403.757812 365.53125 L 403.757812 842.824219 Z M 225.933594 842.824219 L 225.933594 365.53125 L 304.699219 365.53125 L 304.699219 842.824219 Z M 126.875 842.824219 L 126.875 365.53125 L 205.644531 365.53125 L 205.644531 842.824219 Z M 541.347656 597.976562 C 541.347656 586.039062 551.035156 576.355469 562.976562 576.355469 C 574.929688 576.355469 584.617188 586.039062 584.617188 597.976562 C 584.617188 605.773438 580.433594 612.5625 574.226562 616.363281 L 574.226562 638.199219 L 551.738281 638.199219 L 551.738281 616.363281 C 545.527344 612.5625 541.347656 605.773438 541.347656 597.976562 Z M 601.871094 365.53125 L 601.871094 554.1875 L 523.101562 554.1875 L 523.101562 365.53125 Z M 766.398438 365.53125 L 766.398438 325.179688 L 59.28125 325.179688 L 59.28125 365.53125 L 106.585938 365.53125 L 106.585938 842.824219 L 59.28125 842.824219 L 59.28125 883.175781 L 766.398438 883.175781 L 766.398438 842.824219 L 721.214844 842.824219 L 721.214844 365.53125 L 766.398438 365.53125 " fill-opacity="1" fill-rule="nonzero"/></g><g clip-path="url(#24f7daf041)"><path fill="#383f44" d="M 1309.195312 853.46875 L 1250.300781 853.46875 L 1250.300781 496.136719 L 1309.195312 496.136719 Z M 1176.246094 853.46875 L 1176.246094 712.230469 L 1235.136719 712.230469 L 1235.136719 853.46875 Z M 1102.191406 853.46875 L 1102.191406 496.136719 L 1161.082031 496.136719 L 1161.082031 853.46875 Z M 1028.136719 853.46875 L 1028.136719 496.136719 L 1087.027344 496.136719 L 1087.027344 853.46875 Z M 954.082031 853.46875 L 954.082031 496.136719 L 1012.96875 496.136719 L 1012.96875 853.46875 Z M 880.023438 853.46875 L 880.023438 496.136719 L 938.914062 496.136719 L 938.914062 853.46875 Z M 1189.886719 670.160156 C 1189.886719 661.222656 1197.128906 653.972656 1206.058594 653.972656 C 1214.996094 653.972656 1222.238281 661.222656 1222.238281 670.160156 C 1222.238281 675.996094 1219.109375 681.082031 1214.46875 683.925781 L 1214.46875 700.273438 L 1197.65625 700.273438 L 1197.65625 683.925781 C 1193.011719 681.082031 1189.886719 675.996094 1189.886719 670.160156 Z M 1235.136719 496.136719 L 1235.136719 637.375 L 1176.246094 637.375 L 1176.246094 496.136719 Z M 1358.136719 496.136719 L 1358.136719 465.929688 L 829.492188 465.929688 L 829.492188 496.136719 L 864.855469 496.136719 L 864.855469 853.46875 L 829.492188 853.46875 L 829.492188 883.675781 L 1358.136719 883.675781 L 1358.136719 853.46875 L 1324.359375 853.46875 L 1324.359375 496.136719 L 1358.136719 496.136719 " fill-opacity="1" fill-rule="nonzero"/></g></svg>